inDegrees=yes
name=ik_Xsens_quaternion
DataType=double
version=3
OpenSimVersion=4.4-2022-07-23-0e9fedc
endheader
time	pelvis_tilt	pelvis_list	pelvis_rotation	pelvis_tx	pelvis_ty	pelvis_tz	hip_flexion_r	hip_adduction_r	hip_rotation_r	knee_angle_r	knee_angle_r_beta	ankle_angle_r	subtalar_angle_r	mtp_angle_r	hip_flexion_l	hip_adduction_l	hip_rotation_l	knee_angle_l	knee_angle_l_beta	ankle_angle_l	subtalar_angle_l	mtp_angle_l	lumbar_extension	lumbar_bending	lumbar_rotation	arm_flex_r	arm_add_r	arm_rot_r	elbow_flex_r	pro_sup_r	wrist_flex_r	wrist_dev_r	arm_flex_l	arm_add_l	arm_rot_l	elbow_flex_l	pro_sup_l	wrist_flex_l	wrist_dev_l
14.16666666666667	1.685525356874169e-183	9.049095355441607e-175	-4.045260856498006e-182	9.476190496762957e-176	0.93	-9.476190496762957e-176	4.594144125593695e-49	9.049095355441607e-175	0	2.426570649309934e-20	1.430578745171583e-23	-4.241763447863253e-176	-1.060440861965813e-176	2.714728606632482e-174	4.594144125593695e-49	-3.013954204691951e-190	6.742101427496677e-183	2.426570649309934e-20	1.438376960049444e-23	-5.302204309829067e-177	7.069605746438755e-177	-7.239276284353286e-174	-6.903911861756597e-180	-2.779882093191662e-171	5.559764186383323e-171	3.531749337198049e-08	-0.0004919945739470834	-0.0002415741196080336	3.543921839561866e-05	-0.0003659591812299682	1.380782372351319e-179	-1.104625897881056e-178	41.18981374244437	-61.5886701842129	8.014040961799303	-15.24087425000504	0.0001704476315937113	5.429457213264964e-174	7.239276284353286e-174
14.18333333333333	6.852938451383923e-203	3.679143316274354e-194	-1.461960202961904e-201	3.42470210782563e-195	0.93	-3.42470210782563e-195	4.594144125593695e-49	3.679143316274354e-194	0	2.426570649309934e-20	1.430578745171583e-23	-1.532976381780981e-195	-3.832440954452452e-196	9.811048843398278e-194	4.594144125593695e-49	-1.089245232166278e-209	2.741175380553569e-202	2.426570649309934e-20	1.438376960049444e-23	-1.916220477226226e-196	2.874330715839339e-196	-2.943314653019483e-193	-2.806963589686855e-199	-1.004651401563984e-190	2.009302803127967e-190	3.531749337198049e-08	-0.0004919945739470834	-0.0002415741196080336	3.543921839561866e-05	-0.0003659591812299682	5.61392717937371e-199	-4.491141743498968e-198	41.19340223288806	-61.58579997661592	8.015257555774815	-15.25458800798106	0.0001704476315937113	1.962209768679656e-193	2.943314653019483e-193
14.2	6.784415851286037e-207	-2.145744682782586e-31	-1.447342048274346e-205	1.392401049532588e-214	0.93	-1.392401049532588e-214	-9.376166274129832e-35	1.994467588195089e-213	0	2.426570649309934e-20	6.674322468643212e-23	-1.517648135611321e-199	-1.558177803277413e-215	3.988935176390178e-213	-9.376166274129832e-35	-4.428607676565586e-229	9.90662767586653e-222	2.426570649309934e-20	6.682120683521073e-23	-1.897060169514151e-200	1.038785202184942e-215	-1.063716047037381e-212	-2.778896732686761e-203	-2.145744682782586e-31	1.98921176430847e-194	3.531749337198049e-08	-0.0004919945739470834	-0.0002415741196080336	3.543921839561866e-05	-0.0003659591812299682	2.028877348017465e-218	-4.446234772299039e-202	41.20261627146671	-61.60067007648195	8.006396728309387	-15.25696327416964	0.0001704476315937113	7.977870352780357e-213	2.913884420373898e-197
14.21666666666667	3.02326284053544e-226	-9.571133594986865e-51	-7.255830817285056e-225	5.03214747624776e-234	0.93	-5.03214747624776e-234	4.594144125593695e-49	7.208020306910134e-233	0	2.426570649309934e-20	6.674322468643212e-23	-7.608290055065495e-219	-5.631265864773542e-235	1.441604061382027e-232	4.594144125593695e-49	-1.600502021339464e-248	4.027795218067318e-241	2.426570649309934e-20	6.682120683521073e-23	-9.510362568831869e-220	4.223449398580156e-235	-4.32481218414608e-232	-1.238328459483316e-222	-9.571133594986865e-51	9.972337940975446e-214	3.531749337198049e-08	-0.0004919945739470834	-0.0002415741196080336	3.543921839561866e-05	-0.0003659591812299682	8.248924606601868e-238	-1.981325535173306e-221	41.20869965106738	-61.60419159196896	8.00298432116891	-15.26068539058103	0.0001704476315937113	2.883208122764053e-232	1.298481502731178e-216
14.23333333333333	1.229185552388708e-245	-3.891391438812658e-70	-2.622262511762577e-244	2.045949459755726e-253	0.93	-2.045949459755726e-253	4.594144125593695e-49	2.93060672852685e-252	0	2.426570649309934e-20	6.674322468643212e-23	-2.749641535533956e-238	-2.289536506661601e-254	5.861213457053699e-252	4.594144125593695e-49	-6.507254132263828e-268	1.455648108585104e-260	2.426570649309934e-20	6.682120683521073e-23	-3.437051919417445e-239	1.526357671107734e-254	-1.56299025521432e-251	-5.034744022584148e-242	-3.891391438812658e-70	3.604010153455067e-233	3.531749337198049e-08	-0.0004919945739470834	-0.0002415741196080336	3.543921839561866e-05	-0.0003659591812299682	2.981167326382293e-257	-8.055590436134637e-241	41.22291870172784	-61.59941343891075	8.003928099807501	-15.27724882133364	0.0001704476315937113	1.17224269141074e-251	5.279311748225196e-236
14.25	3.274898001663582e-34	0	1.293136610756882e-34	0	0.93	0	-2.946530574705048e-37	1.059123393923149e-271	0	0	-1.175494350822288e-38	-2.722147842326484e-242	0	0	-2.946530574705048e-37	-2.35172635570524e-287	0	0	-1.175494350822288e-38	-3.402684802908105e-243	0	0	3.274898001663582e-34	0	1.293136610756882e-34	3.531749337198049e-08	-0.0004919945739470834	-0.0002415741196080336	3.543921839561866e-05	-0.0003659591812299682	0	-7.975042506815917e-245	41.24060527898532	-61.61198023747195	7.990724023143935	-15.28056815216351	0.0001704476315937113	0	5.226523857266879e-240
